PathFileType	4	(X/Y/Z)	D:\TRACE\spotREDO_2-26-24\spot_Both_Motion_3_3-v60.trc
DataRate	CameraRate	NumFrames	NumMarkers	Units	OrigDataRate	OrigDataStartFrame	OrigNumFrames
100.00	100.00	      14	9	mm	100.00	876	      7000
Frame#	Time	front left toe			Front right toe			aft left toe			aft right toe			Arm			FL body			FR body			AL Body			AR Body			
		X1	Y1	Z1	X2	Y2	Z2	X3	Y3	Z3	X4	Y4	Z4	X5	Y5	Z5	X6	Y6	Z6	X7	Y7	Z7	X8	Y8	Z8	X9	Y9	Z9	

876	8.750	-100.03991	-2.18420	-451.71252	304.32117	-8.83936	-567.25281	-0.20374	27.08318	168.41536	345.00034	27.16352	132.91393	83.94750	654.65765	-790.94879	5.74612	520.88660	-512.24933	158.81561	527.97522	-538.75781	145.46716	578.75488	359.06488	292.12967	574.21912	337.69525	
877	8.760	-101.18907	-3.09584	-453.51563	304.20688	-8.75632	-567.19604	-0.36327	26.89747	168.48338	344.66330	27.27352	132.85698	84.78698	654.62946	-790.84412	4.05653	520.89148	-512.05182	157.08852	527.94641	-538.71088	143.56982	579.02618	359.04309	290.01343	574.83643	337.52698	
878	8.770	-101.92177	-2.86453	-451.57950	303.84116	-7.66536	-567.17657	-0.93622	26.45212	168.66025	344.64816	26.95397	132.90027	85.10909	654.75153	-790.84302	2.57605	521.79364	-512.57117	155.66394	528.64429	-538.86285	141.79985	579.29956	359.19702	287.89581	574.74451	337.66385	
879	8.780	-101.94749	-2.86392	-452.03018	302.26138	-6.99889	-566.51727	-1.46020	26.08020	168.80147	343.82907	27.84311	132.63930	85.00506	655.04230	-790.78363	1.24614	522.51624	-512.62146	154.29724	529.22186	-538.95325	139.74261	579.65564	358.96347	286.12698	575.12250	337.52969	
880	8.790	-102.07929	-2.38705	-451.82101	301.76050	-6.31519	-566.74377	-1.77937	26.07883	168.75764	342.80585	27.90451	132.65172	84.52896	655.57416	-790.38818	-0.34166	523.59277	-512.76544	153.30373	529.31128	-538.92889	138.50012	579.61475	358.53867	284.51486	574.76477	337.48410	
881	8.800	-102.26070	-2.04782	-452.27435	302.13681	-6.22627	-566.12219	-1.91340	25.98496	168.67815	342.62759	27.92532	132.73778	84.14970	655.83728	-790.19861	-1.03373	524.18066	-513.20898	152.24091	529.49860	-538.93274	136.05609	579.98462	358.40421	282.28433	574.73425	337.39969	
882	8.810	-102.23401	-1.98045	-452.29269	302.80991	-6.17056	-566.00323	-2.14221	25.77210	168.60715	342.59613	27.96960	132.77493	83.75431	655.99292	-790.25250	-1.76889	524.67188	-513.52045	151.50076	529.58752	-539.32751	134.28989	580.68909	358.43439	280.16425	575.03204	337.62189	
883	8.820	-102.21063	-1.85236	-452.29593	302.95840	-6.07337	-565.88544	-2.34139	25.48691	168.50638	342.21951	27.99026	132.71324	83.46861	655.91815	-790.54510	-2.34939	524.98456	-514.08459	150.93924	529.70880	-539.64343	132.22244	580.99878	358.17926	278.03281	575.08057	337.52664	
884	8.830	-102.15674	-1.70727	-452.25269	303.12363	-5.83052	-565.78198	-2.48982	25.25422	168.45291	342.20432	28.21715	133.06035	83.19382	655.90295	-790.95251	-3.06338	525.27563	-514.54382	150.60001	529.86755	-539.72424	130.56401	580.58575	357.62488	276.75259	575.18225	337.54388	
885	8.840	-102.16222	-1.34490	-452.11807	303.12918	-5.64155	-565.80548	-2.49061	25.00597	168.55505	342.17029	28.20547	133.11354	83.04458	655.98291	-791.00812	-3.45973	525.21802	-514.80389	149.98161	530.08722	-539.94226	128.98811	581.35901	357.86774	275.81195	575.19922	337.74951	
886	8.850	-102.22911	-1.28702	-452.08908	303.10468	-5.50820	-565.81628	-2.62088	24.97613	168.54987	342.11813	28.21815	133.12372	82.83409	656.09283	-791.18225	-4.22084	525.10669	-515.30737	149.20900	530.11914	-540.39709	127.58620	581.28894	357.34854	273.77203	575.22876	337.10263	
887	8.860	-102.33855	-1.23374	-452.05023	303.15338	-5.28047	-565.76740	-2.64866	24.76191	168.57184	342.07617	28.23809	133.25714	82.10923	656.22089	-791.38562	-4.93874	525.09894	-515.86469	148.72087	530.16382	-540.71753	126.61059	581.29956	356.93127	273.04083	575.49231	336.85010	
888	8.870	-102.51369	-1.10019	-451.96136	303.00232	-5.16492	-565.94196	-2.72707	24.68837	168.67607	341.93985	28.15589	133.23369	81.92220	656.35632	-791.44952	-5.43657	524.89502	-516.14703	147.98749	530.22046	-541.12366	126.02346	581.48279	356.74521	272.28864	575.61475	336.49759	
889	8.880	-102.65579	-0.92865	-451.86636	302.78928	-4.86671	-565.93622	-2.81737	24.64382	168.73189	341.87170	28.09747	133.18852	81.41031	656.51825	-791.76862	-6.29737	524.93994	-516.32513	147.21527	530.27246	-541.44879	125.23910	581.39648	356.10574	272.17218	575.60748	336.20898	
